<?xml version="1.0" encoding="UTF-8" standalone="no"?>
<!-- Created with Inkscape (http://www.inkscape.org/) -->

<svg
   width="300"
   height="300"
   viewBox="0 0 79.375 79.374999"
   version="1.1"
   id="svg12"
   inkscape:version="1.2.1 (9c6d41e, 2022-07-14)"
   sodipodi:docname="subby.svg"
   xmlns:inkscape="http://www.inkscape.org/namespaces/inkscape"
   xmlns:sodipodi="http://sodipodi.sourceforge.net/DTD/sodipodi-0.dtd"
   xmlns="http://www.w3.org/2000/svg"
   xmlns:svg="http://www.w3.org/2000/svg">
  <sodipodi:namedview
     id="namedview14"
     pagecolor="#505050"
     bordercolor="#eeeeee"
     borderopacity="1"
     inkscape:showpageshadow="0"
     inkscape:pageopacity="0"
     inkscape:pagecheckerboard="0"
     inkscape:deskcolor="#505050"
     inkscape:document-units="mm"
     showgrid="true"
     inkscape:zoom="1.9313783"
     inkscape:cx="141.34983"
     inkscape:cy="181.99438"
     inkscape:window-width="1728"
     inkscape:window-height="1027"
     inkscape:window-x="0"
     inkscape:window-y="25"
     inkscape:window-maximized="0"
     inkscape:current-layer="layer1">
    <inkscape:grid
       type="xygrid"
       id="grid918" />
  </sodipodi:namedview>
  <defs
     id="defs9" />
  <g
     inkscape:label="Layer 1"
     inkscape:groupmode="layer"
     id="layer1">
    <ellipse
       style="fill:#5599ff;stroke-width:0.25723"
       id="path170"
       cy="39.710709"
       cx="39.698372"
       rx="39.659046"
       ry="39.710705" />
    <path
       style="fill:#ffdd55;stroke-width:0.264583"
       id="path516"
       sodipodi:type="arc"
       sodipodi:cx="39.599476"
       sodipodi:cy="47.163425"
       sodipodi:rx="18.242456"
       sodipodi:ry="11.568387"
       sodipodi:start="0"
       sodipodi:end="6.1214974"
       sodipodi:open="true"
       sodipodi:arc-type="arc"
       d="M 57.841932,47.163425 A 18.242456,11.568387 0 0 1 40.336671,58.722363 18.242456,11.568387 0 0 1 21.416601,48.097641 18.242456,11.568387 0 0 1 37.392705,35.679993 a 18.242456,11.568387 0 0 1 20.21129,9.621103" />
    <path
       style="fill:#5599ff;stroke-width:0.264583"
       id="path680-1"
       sodipodi:type="arc"
       sodipodi:cx="39.563297"
       sodipodi:cy="46.327599"
       sodipodi:rx="2.6742585"
       sodipodi:ry="2.5562763"
       sodipodi:start="0"
       sodipodi:end="6.1214974"
       sodipodi:open="true"
       sodipodi:arc-type="arc"
       d="m 42.237556,46.327599 a 2.6742585,2.5562763 0 0 1 -2.566189,2.554188 2.6742585,2.5562763 0 0 1 -2.773594,-2.347754 2.6742585,2.5562763 0 0 1 2.342022,-2.743938 2.6742585,2.5562763 0 0 1 2.96288,2.125983" />
    <path
       style="fill:#5599ff;stroke-width:0.264583"
       id="path680-1-3"
       sodipodi:type="arc"
       sodipodi:cx="50.417637"
       sodipodi:cy="46.091629"
       sodipodi:rx="2.6742585"
       sodipodi:ry="2.5562763"
       sodipodi:start="0"
       sodipodi:end="6.1214974"
       sodipodi:open="true"
       sodipodi:arc-type="arc"
       d="m 53.091895,46.091629 a 2.6742585,2.5562763 0 0 1 -2.566189,2.554188 2.6742585,2.5562763 0 0 1 -2.773593,-2.347754 2.6742585,2.5562763 0 0 1 2.342022,-2.743938 2.6742585,2.5562763 0 0 1 2.96288,2.125984" />
    <rect
       style="fill:#ffdd55;stroke-width:0.474303"
       id="rect570"
       width="5.0180879"
       height="14.421156"
       x="37.21516"
       y="22.612024" />
    <path
       style="fill:#5599ff;stroke-width:0.264583"
       id="path680"
       sodipodi:type="arc"
       sodipodi:cx="28.630297"
       sodipodi:cy="46.130959"
       sodipodi:rx="2.6742585"
       sodipodi:ry="2.5562763"
       sodipodi:start="0"
       sodipodi:end="6.1214974"
       sodipodi:open="true"
       sodipodi:arc-type="arc"
       d="m 31.304555,46.130959 a 2.6742585,2.5562763 0 0 1 -2.566189,2.554188 2.6742585,2.5562763 0 0 1 -2.773593,-2.347754 2.6742585,2.5562763 0 0 1 2.342022,-2.743938 2.6742585,2.5562763 0 0 1 2.96288,2.125983" />
    <path
       style="fill:#ffdd55;stroke-width:0.264583"
       id="path782"
       sodipodi:type="arc"
       sodipodi:cx="39.681278"
       sodipodi:cy="20.882811"
       sodipodi:rx="3.8147509"
       sodipodi:ry="3.8934057"
       sodipodi:start="0"
       sodipodi:end="6.1214974"
       sodipodi:open="true"
       sodipodi:arc-type="arc"
       d="m 43.496029,20.882811 a 3.8147509,3.8934057 0 0 1 -3.660593,3.890225 3.8147509,3.8934057 0 0 1 -3.956449,-3.57581 3.8147509,3.8934057 0 0 1 3.340825,-4.179229 3.8147509,3.8934057 0 0 1 4.226461,3.238036" />
    <path
       style="fill:#5599ff;stroke-width:0.340865"
       id="path838"
       sodipodi:type="arc"
       sodipodi:cx="39.641945"
       sodipodi:cy="20.725504"
       sodipodi:rx="2.8315675"
       sodipodi:ry="2.7922404"
       sodipodi:start="0"
       sodipodi:end="6.1214974"
       sodipodi:open="true"
       sodipodi:arc-type="arc"
       d="m 42.473512,20.725504 a 2.8315675,2.7922404 0 0 1 -2.717141,2.789959 2.8315675,2.7922404 0 0 1 -2.936745,-2.564469 2.8315675,2.7922404 0 0 1 2.479787,-2.997225 2.8315675,2.7922404 0 0 1 3.137167,2.322228" />
    <rect
       style="fill:#ffdd55;stroke-width:0.251005"
       id="rect894"
       width="2.0022206"
       height="5.7841935"
       x="38.75568"
       y="0.028179264" />
    <rect
       style="fill:#ffdd55;stroke-width:0.251005"
       id="rect894-0"
       width="2.0022206"
       height="5.7841935"
       x="38.716351"
       y="73.583908" />
    <rect
       style="fill:#ffdd55;stroke-width:0.251005"
       id="rect894-4-8"
       width="2.0022206"
       height="5.7841935"
       x="-40.565121"
       y="74.025444"
       transform="rotate(-89.381998)" />
    <rect
       style="fill:#ffdd55;stroke-width:0.251005"
       id="rect894-4-8-1"
       width="2.0022206"
       height="5.7841935"
       x="-41.358608"
       y="0.46253297"
       transform="rotate(-89.381998)" />
  </g>
</svg>
